<svg version="1" xmlns="http://www.w3.org/2000/svg" width="1337.333" height="1337.333" viewBox="0 0 1003.000000 1003.000000"><path d="M0 500v500h1000V0H0v500zm631.5-374.8c56.4 28.3 102.7 68 140 120.3 25.4 35.7 47 83.9 58 129.8 3.7 15.6 7.2 35.4 7.7 43.2l.3 5-114.8.3-114.8.2.7 2.3c5.3 17.4 61.9 76.7 116.7 122l11.7 9.8v91.2l-21.7-.6c-12-.3-29.7-1.3-39.3-2.2-15.1-1.4-53.4-6.4-62.1-8.2l-2.9-.6V688l-141 .2-141 .3.2-65.9.3-65.8 14-5.2c18.8-7 24.3-9.5 42.6-18.7 35.3-17.8 61.5-35.7 90.2-61.6l11.7-10.7-6.7-1.7c-9.2-2.4-21.6-8.8-29.1-15-11.7-9.7-21.6-26-24.8-40.9-1.9-9-1.4-25.3 1.1-34.5 10.2-37.8 48.3-61.6 86.3-53.9 12 2.4 26.3 9.8 35.5 18.4 4.2 3.9 9.1 9.4 10.9 12.1l3.2 5 1.5-2.8c7.3-13.9 22.2-54.9 29.2-80.2 11.4-41.4 15.8-72.3 16.6-118.7l.5-32.2 3.7 1.5c2 .9 9 4.2 15.6 7.5zM301.8 800.7l-.3 28.8h-58l-.3-14.2-.3-14.2 5.2-5.8c2.8-3.2 9.2-9.7 14.2-14.5l9.2-8.7 15.3-.1H302l-.2 28.7zm132.2.3v29h-58v-58h58v29zm132.5 0v28.5h-58l-.3-28.8-.2-28.7 29.2.2 29.3.3V801zm118.6-15.1l14 13.8-.3 14.9-.3 14.9-28.7.3-28.8.2v-58h30.2l13.9 13.9zM301.8 933.3l.2 28.7-29.2-.2-29.3-.3-.3-27.5c-.1-15.1 0-28 .3-28.8.3-1 6.6-1.2 29.2-1l28.8.3.3 28.8zM434 933v29h-58v-58h58v29zm132.5 0v28.5l-29.2.3-29.3.2v-28.3c0-15.6.3-28.7.7-29 .4-.4 13.5-.6 29.2-.5l28.6.3V933zm132.5 0v29h-58v-58h58v29z"/><path d="M650.8 306.5c-9 4.9-8.9 20.3.2 25 3.8 1.9 10.3 1.9 14.1 0 8.9-4.7 9.3-19.3.6-24.5-3.8-2.4-11-2.6-14.9-.5zM495.7 424.5c-4.8 1.6-6.1 2.8-8.1 6.9-2.2 4.6-2 9.4.4 13.4 7.6 12.5 26.5 7.5 26.5-7 0-9.8-9.5-16.5-18.8-13.3z"/></svg>